<?xml version="1.0" encoding="utf-8"?>
<!-- Svg Vector Icons : http://www.onlinewebfonts.com/icon -->
<!DOCTYPE svg PUBLIC "-//W3C//DTD SVG 1.1//EN" "http://www.w3.org/Graphics/SVG/1.1/DTD/svg11.dtd">
<svg version="1.1" xmlns="http://www.w3.org/2000/svg" xmlns:xlink="http://www.w3.org/1999/xlink" x="0px" y="0px" viewBox="0 0 1000 1000" enable-background="new 0 0 1000 1000" xml:space="preserve">
<metadata> Svg Vector Icons : http://www.onlinewebfonts.com/icon </metadata>
<g><path d="M304.3,551.6c-0.7-0.5-1.4-1.1-2-1.6c-0.7-0.1-1.5-0.2-2.2-0.4c0.5-0.1,1-0.2,1.5-0.3C226,490.1,177.4,398.1,177.4,294.7c0-44.7,9-87.2,25.4-125.9C125.9,195.7,70.8,268.9,70.8,355c0,98,71.5,179.3,165.2,194.6C108.6,568.2,10,696.2,10,851.3h91.9C132,721.9,206.3,614.1,304.3,551.6z"/><path d="M544.9,561.8c128.4-21,226.5-132.5,226.5-266.8c0-149.3-121.1-270.4-270.4-270.4c-149.3,0-270.4,121.1-270.4,270.4c0,134.4,98,245.8,226.5,266.8c-174.6,25.5-309.8,200.9-309.8,413.6h707.5C854.7,762.8,719.5,587.3,544.9,561.8z"/><path d="M764,549.6C857.7,534.3,929.2,453,929.2,355c0-85.3-54.1-157.9-129.9-185.4c16.2,38.5,25.1,80.8,25.1,125.1c0,104.7-49.8,197.8-126.9,256.9c98.1,62.5,172.3,170.4,202.5,299.7H990C990,696.2,891.4,568.2,764,549.6z"/></g>
</svg>